<svg width="24" height="24" viewBox="0 0 24 24" fill="none" xmlns="http://www.w3.org/2000/svg">
<circle cx="12" cy="12" r="12" fill="#EC7000"/>
<g clip-path="url(#clip0_3130_2437)">
<path fill-rule="evenodd" clip-rule="evenodd" d="M10.617 7.14676C10.8127 7.34244 10.8127 7.65969 10.617 7.85537L10.1472 8.32522L10.5405 8.95514H13.6032V8.50319H12.7681C12.4913 8.50319 12.267 8.27886 12.267 8.00213C12.267 7.7254 12.4913 7.50106 12.7681 7.50106H14.1042H14.7723C15.049 7.50106 15.2734 7.7254 15.2734 8.00213C15.2734 8.27886 15.049 8.50319 14.7723 8.50319H14.6053V9.10965C14.629 9.13446 14.6504 9.1619 14.669 9.19171L15.5568 10.6202C15.8397 10.5466 16.1365 10.5075 16.4425 10.5075C18.3796 10.5075 19.9499 12.0778 19.9499 14.0149C19.9499 15.952 18.3796 17.5224 16.4425 17.5224C14.5054 17.5224 12.9351 15.952 12.9351 14.0149C12.9351 12.7441 13.6109 11.6311 14.6228 11.0158L13.9648 9.95727H10.5569L9.85951 11.2069C10.7128 11.8467 11.2649 12.8663 11.2649 14.0149C11.2649 15.952 9.69456 17.5224 7.75745 17.5224C5.82033 17.5224 4.25 15.952 4.25 14.0149C4.25 12.0778 5.82033 10.5075 7.75745 10.5075C8.18743 10.5075 8.59934 10.5848 8.98002 10.7264L9.68091 9.47052L9.08611 8.51807C8.96256 8.32023 8.99187 8.06329 9.15681 7.89836L9.9084 7.14676C10.1041 6.95108 10.4213 6.95108 10.617 7.14676ZM16.184 13.5278L15.1519 11.8672C14.424 12.3055 13.9372 13.1034 13.9372 14.0149C13.9372 15.3986 15.0589 16.5203 16.4425 16.5203C17.8261 16.5203 18.9478 15.3986 18.9478 14.0149C18.9478 12.6313 17.8261 11.5096 16.4425 11.5096C16.334 11.5096 16.227 11.5165 16.1222 11.5299L17.0351 12.9988C17.1812 13.2339 17.1091 13.5428 16.8741 13.6889C16.639 13.835 16.3301 13.7629 16.184 13.5278ZM7.6539 13.1027L8.48336 11.6164C8.25359 11.5469 8.00988 11.5096 7.75745 11.5096C6.3738 11.5096 5.25213 12.6313 5.25213 14.0149C5.25213 15.3986 6.3738 16.5203 7.75745 16.5203C9.14109 16.5203 10.2628 15.3986 10.2628 14.0149C10.2628 13.2431 9.91373 12.5528 9.36489 12.0932L8.52898 13.591C8.39412 13.8327 8.0889 13.9192 7.84725 13.7844C7.60561 13.6495 7.51904 13.3443 7.6539 13.1027Z" fill="white"/>
</g>
<defs>
<clipPath id="clip0_3130_2437">
<rect width="15.9998" height="16" fill="white" transform="translate(4 4)"/>
</clipPath>
</defs>
</svg>
