<svg width="35" height="35" viewBox="0 0 35 35" fill="none" xmlns="http://www.w3.org/2000/svg">
<rect width="34.2857" height="34.2857" rx="4.57143" fill="#EC7000"/>
<g clip-path="url(#clip0_3324_33)">
<path d="M23.1426 15.8086C23.1426 20.4753 17.1426 24.4753 17.1426 24.4753C17.1426 24.4753 11.1426 20.4753 11.1426 15.8086C11.1426 14.2173 11.7747 12.6912 12.8999 11.566C14.0252 10.4407 15.5513 9.80859 17.1426 9.80859C18.7339 9.80859 20.26 10.4407 21.3852 11.566C22.5104 12.6912 23.1426 14.2173 23.1426 15.8086Z" stroke="white" stroke-linecap="round" stroke-linejoin="round"/>
<path d="M17.1426 17.8086C18.2471 17.8086 19.1426 16.9132 19.1426 15.8086C19.1426 14.704 18.2471 13.8086 17.1426 13.8086C16.038 13.8086 15.1426 14.704 15.1426 15.8086C15.1426 16.9132 16.038 17.8086 17.1426 17.8086Z" stroke="white" stroke-linecap="round" stroke-linejoin="round"/>
</g>
<defs>
<clipPath id="clip0_3324_33">
<rect width="16" height="16" fill="white" transform="translate(9.14258 9.14258)"/>
</clipPath>
</defs>
</svg>
