<svg width="64" height="51" viewBox="0 0 64 51" fill="none" xmlns="http://www.w3.org/2000/svg">
<path d="M33.732 48C32.9622 49.3333 31.0377 49.3333 30.2679 48L25.9378 40.5C25.168 39.1667 26.1303 37.5 27.6699 37.5L36.3301 37.5C37.8697 37.5 38.832 39.1667 38.0622 40.5L33.732 48Z" fill="#DA1E28"/>
<path d="M0 8C0 3.58172 3.58172 0 8 0H56C60.4183 0 64 3.58172 64 8V32C64 36.4183 60.4183 40 56 40H8C3.58172 40 0 36.4183 0 32V8Z" fill="#DA1E28"/>
<g clip-path="url(#clip0_3130_2766)">
<path d="M18 10.832V29.1654" stroke="white" stroke-width="1.66667" stroke-linecap="round" stroke-linejoin="round"/>
<path d="M22.1667 14.166H15.9167C15.1431 14.166 14.4013 14.4733 13.8543 15.0203C13.3073 15.5673 13 16.3091 13 17.0827C13 17.8562 13.3073 18.5981 13.8543 19.1451C14.4013 19.6921 15.1431 19.9993 15.9167 19.9993H20.0833C20.8569 19.9993 21.5987 20.3066 22.1457 20.8536C22.6927 21.4006 23 22.1425 23 22.916C23 23.6896 22.6927 24.4314 22.1457 24.9784C21.5987 25.5254 20.8569 25.8327 20.0833 25.8327H13" stroke="white" stroke-width="1.66667" stroke-linecap="round" stroke-linejoin="round"/>
</g>
<g clip-path="url(#clip1_3130_2766)">
<path d="M32 10.832V29.1654" stroke="white" stroke-width="1.66667" stroke-linecap="round" stroke-linejoin="round"/>
<path d="M36.1667 14.166H29.9167C29.1431 14.166 28.4013 14.4733 27.8543 15.0203C27.3073 15.5673 27 16.3091 27 17.0827C27 17.8562 27.3073 18.5981 27.8543 19.1451C28.4013 19.6921 29.1431 19.9993 29.9167 19.9993H34.0833C34.8569 19.9993 35.5987 20.3066 36.1457 20.8536C36.6927 21.4006 37 22.1425 37 22.916C37 23.6896 36.6927 24.4314 36.1457 24.9784C35.5987 25.5254 34.8569 25.8327 34.0833 25.8327H27" stroke="white" stroke-width="1.66667" stroke-linecap="round" stroke-linejoin="round"/>
</g>
<g clip-path="url(#clip2_3130_2766)">
<path d="M46 10.832V29.1654" stroke="white" stroke-width="1.66667" stroke-linecap="round" stroke-linejoin="round"/>
<path d="M50.1676 14.166H43.9176C43.1441 14.166 42.4022 14.4733 41.8552 15.0203C41.3083 15.5673 41.001 16.3091 41.001 17.0827C41.001 17.8562 41.3083 18.5981 41.8552 19.1451C42.4022 19.6921 43.1441 19.9993 43.9176 19.9993H48.0843C48.8579 19.9993 49.5997 20.3066 50.1467 20.8536C50.6937 21.4006 51.001 22.1425 51.001 22.916C51.001 23.6896 50.6937 24.4314 50.1467 24.9784C49.5997 25.5254 48.8579 25.8327 48.0843 25.8327H41.001" stroke="white" stroke-width="1.66667" stroke-linecap="round" stroke-linejoin="round"/>
</g>
<defs>
<clipPath id="clip0_3130_2766">
<rect width="20" height="20" fill="white" transform="translate(8 10)"/>
</clipPath>
<clipPath id="clip1_3130_2766">
<rect width="20" height="20" fill="white" transform="translate(22 10)"/>
</clipPath>
<clipPath id="clip2_3130_2766">
<rect width="20" height="20" fill="white" transform="translate(36 10)"/>
</clipPath>
</defs>
</svg>
