<svg width="64" height="40" viewBox="0 0 64 40" fill="none" xmlns="http://www.w3.org/2000/svg">
<path d="M0 8C0 3.58172 3.58172 0 8 0H56C60.4183 0 64 3.58172 64 8V32C64 36.4183 60.4183 40 56 40H8C3.58172 40 0 36.4183 0 32V8Z" fill="#DA1E28"/>
<g clip-path="url(#clip0_3130_2859)">
<path d="M18.002 9.83398V28.1686" stroke="white" stroke-width="1.66678" stroke-linecap="round" stroke-linejoin="round"/>
<path d="M22.1693 13.166H15.9188C15.1452 13.166 14.4033 13.4733 13.8563 14.0203C13.3093 14.5674 13.002 15.3093 13.002 16.0829C13.002 16.8565 13.3093 17.5984 13.8563 18.1454C14.4033 18.6924 15.1452 18.9998 15.9188 18.9998H20.0858C20.8594 18.9998 21.6013 19.3071 22.1483 19.8541C22.6953 20.4011 23.0027 21.143 23.0027 21.9166C23.0027 22.6902 22.6953 23.4322 22.1483 23.9792C21.6013 24.5262 20.8594 24.8335 20.0858 24.8335H13.002" stroke="white" stroke-width="1.66678" stroke-linecap="round" stroke-linejoin="round"/>
</g>
<g clip-path="url(#clip1_3130_2859)">
<path d="M32.002 9.83398V28.1686" stroke="white" stroke-width="1.66678" stroke-linecap="round" stroke-linejoin="round"/>
<path d="M36.1693 13.166H29.9188C29.1452 13.166 28.4033 13.4733 27.8563 14.0203C27.3093 14.5674 27.002 15.3093 27.002 16.0829C27.002 16.8565 27.3093 17.5984 27.8563 18.1454C28.4033 18.6924 29.1452 18.9998 29.9188 18.9998H34.0858C34.8594 18.9998 35.6013 19.3071 36.1483 19.8541C36.6953 20.4011 37.0027 21.143 37.0027 21.9166C37.0027 22.6902 36.6953 23.4322 36.1483 23.9792C35.6013 24.5262 34.8594 24.8335 34.0858 24.8335H27.002" stroke="white" stroke-width="1.66678" stroke-linecap="round" stroke-linejoin="round"/>
</g>
<g clip-path="url(#clip2_3130_2859)">
<path d="M46.0059 9.83398V28.1686" stroke="white" stroke-width="1.66678" stroke-linecap="round" stroke-linejoin="round"/>
<path d="M50.1722 13.168H43.9218C43.1482 13.168 42.4062 13.4753 41.8592 14.0223C41.3122 14.5693 41.0049 15.3112 41.0049 16.0848C41.0049 16.8584 41.3122 17.6004 41.8592 18.1474C42.4062 18.6944 43.1482 19.0017 43.9218 19.0017H48.0887C48.8623 19.0017 49.6042 19.309 50.1513 19.856C50.6983 20.4031 51.0056 21.145 51.0056 21.9186C51.0056 22.6922 50.6983 23.4341 50.1513 23.9811C49.6042 24.5281 48.8623 24.8355 48.0887 24.8355H41.0049" stroke="white" stroke-width="1.66678" stroke-linecap="round" stroke-linejoin="round"/>
</g>
<defs>
<clipPath id="clip0_3130_2859">
<rect width="20.0014" height="20.0014" fill="white" transform="translate(8.00098 9)"/>
</clipPath>
<clipPath id="clip1_3130_2859">
<rect width="20.0014" height="20.0014" fill="white" transform="translate(22.002 9)"/>
</clipPath>
<clipPath id="clip2_3130_2859">
<rect width="20.0014" height="20.0014" fill="white" transform="translate(36.0039 9)"/>
</clipPath>
</defs>
</svg>
