<svg width="64" height="40" viewBox="0 0 64 40" fill="none" xmlns="http://www.w3.org/2000/svg">
<path d="M0 8C0 3.58172 3.58172 0 8 0H56C60.4183 0 64 3.58172 64 8V32C64 36.4183 60.4183 40 56 40H8C3.58172 40 0 36.4183 0 32V8Z" fill="#003399"/>
<path d="M32.0029 10.834V29.1673" stroke="white" stroke-width="1.66678" stroke-linecap="round" stroke-linejoin="round"/>
<path d="M36.1683 14.166H29.9178C29.1442 14.166 28.4023 14.4733 27.8553 15.0203C27.3083 15.5673 27.001 16.3091 27.001 17.0827C27.001 17.8562 27.3083 18.5981 27.8553 19.1451C28.4023 19.6921 29.1442 19.9993 29.9178 19.9993H34.0848C34.8584 19.9993 35.6003 20.3066 36.1473 20.8536C36.6944 21.4006 37.0017 22.1425 37.0017 22.916C37.0017 23.6896 36.6944 24.4314 36.1473 24.9784C35.6003 25.5254 34.8584 25.8327 34.0848 25.8327H27.001" stroke="white" stroke-width="1.66678" stroke-linecap="round" stroke-linejoin="round"/>
</svg>
