<svg width="64" height="51" viewBox="0 0 64 51" fill="none" xmlns="http://www.w3.org/2000/svg">
<path d="M32.732 48C31.9622 49.3333 30.0377 49.3333 29.2679 48L24.9378 40.5C24.168 39.1667 25.1303 37.5 26.6699 37.5L35.3301 37.5C36.8697 37.5 37.832 39.1667 37.0622 40.5L32.732 48Z" fill="#F1A61B"/>
<path d="M0 8C0 3.58172 3.58172 0 8 0H56C60.4183 0 64 3.58172 64 8V32C64 36.4183 60.4183 40 56 40H8C3.58172 40 0 36.4183 0 32V8Z" fill="#F1A61B"/>
<path d="M25 10.834V29.1673" stroke="white" stroke-width="1.66667" stroke-linecap="round" stroke-linejoin="round"/>
<path d="M29.1667 14.166H22.9167C22.1431 14.166 21.4013 14.4733 20.8543 15.0203C20.3073 15.5673 20 16.3091 20 17.0827C20 17.8562 20.3073 18.5981 20.8543 19.1451C21.4013 19.6921 22.1431 19.9993 22.9167 19.9993H27.0833C27.8569 19.9993 28.5987 20.3066 29.1457 20.8536C29.6927 21.4006 30 22.1425 30 22.916C30 23.6896 29.6927 24.4314 29.1457 24.9784C28.5987 25.5254 27.8569 25.8327 27.0833 25.8327H20" stroke="white" stroke-width="1.66667" stroke-linecap="round" stroke-linejoin="round"/>
<path d="M39 10.834V29.1673" stroke="white" stroke-width="1.66667" stroke-linecap="round" stroke-linejoin="round"/>
<path d="M43.1667 14.166H36.9167C36.1431 14.166 35.4013 14.4733 34.8543 15.0203C34.3073 15.5673 34 16.3091 34 17.0827C34 17.8562 34.3073 18.5981 34.8543 19.1451C35.4013 19.6921 36.1431 19.9993 36.9167 19.9993H41.0833C41.8569 19.9993 42.5987 20.3066 43.1457 20.8536C43.6927 21.4006 44 22.1425 44 22.916C44 23.6896 43.6927 24.4314 43.1457 24.9784C42.5987 25.5254 41.8569 25.8327 41.0833 25.8327H34" stroke="white" stroke-width="1.66667" stroke-linecap="round" stroke-linejoin="round"/>
</svg>
