<svg width="64" height="40" viewBox="0 0 64 40" fill="none" xmlns="http://www.w3.org/2000/svg">
<path d="M0 8C0 3.58172 3.58172 0 8 0H56C60.4183 0 64 3.58172 64 8V32C64 36.4183 60.4183 40 56 40H8C3.58172 40 0 36.4183 0 32V8Z" fill="#F1A61B"/>
<path d="M25.002 10.834V29.1673" stroke="white" stroke-width="1.66678" stroke-linecap="round" stroke-linejoin="round"/>
<path d="M29.1683 14.166H22.9178C22.1442 14.166 21.4023 14.4733 20.8553 15.0203C20.3083 15.5673 20.001 16.3091 20.001 17.0827C20.001 17.8562 20.3083 18.5981 20.8553 19.1451C21.4023 19.6921 22.1442 19.9993 22.9178 19.9993H27.0848C27.8584 19.9993 28.6003 20.3066 29.1473 20.8536C29.6944 21.4006 30.0017 22.1425 30.0017 22.916C30.0017 23.6896 29.6944 24.4314 29.1473 24.9784C28.6003 25.5254 27.8584 25.8327 27.0848 25.8327H20.001" stroke="white" stroke-width="1.66678" stroke-linecap="round" stroke-linejoin="round"/>
<path d="M39.002 10.834V29.1673" stroke="white" stroke-width="1.66678" stroke-linecap="round" stroke-linejoin="round"/>
<path d="M43.1693 14.166H36.9188C36.1452 14.166 35.4033 14.4733 34.8563 15.0203C34.3093 15.5673 34.002 16.3091 34.002 17.0827C34.002 17.8562 34.3093 18.5981 34.8563 19.1451C35.4033 19.6921 36.1452 19.9993 36.9188 19.9993H41.0858C41.8594 19.9993 42.6013 20.3066 43.1483 20.8536C43.6953 21.4006 44.0027 22.1425 44.0027 22.916C44.0027 23.6896 43.6953 24.4314 43.1483 24.9784C42.6013 25.5254 41.8594 25.8327 41.0858 25.8327H34.002" stroke="white" stroke-width="1.66678" stroke-linecap="round" stroke-linejoin="round"/>
</svg>
