<svg width="64" height="40" viewBox="0 0 64 40" fill="none" xmlns="http://www.w3.org/2000/svg">
<path d="M0 8C0 3.58172 3.58172 0 8 0H56C60.4183 0 64 3.58172 64 8V32C64 36.4183 60.4183 40 56 40H8C3.58172 40 0 36.4183 0 32V8Z" fill="#24A148"/>
<path d="M21.7185 17.168C20.7758 17.168 20.0105 16.9487 19.4225 16.51C18.8438 16.062 18.5311 15.4413 18.4845 14.648H19.7865C19.8238 15.096 20.0198 15.4413 20.3745 15.684C20.7291 15.9267 21.1771 16.048 21.7185 16.048C22.1945 16.048 22.5538 15.9593 22.7965 15.782C23.0485 15.5953 23.1745 15.3293 23.1745 14.984C23.1745 14.7787 23.1231 14.6153 23.0205 14.494C22.9271 14.3727 22.8058 14.284 22.6565 14.228C22.5071 14.1627 22.2645 14.0693 21.9285 13.948L20.8925 13.612C20.3978 13.4533 20.0011 13.2993 19.7025 13.15C19.4038 13.0007 19.1565 12.7953 18.9605 12.534C18.7645 12.2727 18.6665 11.932 18.6665 11.512C18.6665 10.8587 18.9045 10.3453 19.3805 9.972C19.8565 9.58933 20.5098 9.398 21.3405 9.398C22.1898 9.398 22.8758 9.61733 23.3985 10.056C23.9305 10.4947 24.2431 11.1247 24.3365 11.946H23.0485C22.9925 11.4793 22.8105 11.1247 22.5025 10.882C22.1945 10.6393 21.7931 10.518 21.2985 10.518C20.8785 10.518 20.5518 10.6067 20.3185 10.784C20.0851 10.952 19.9685 11.1853 19.9685 11.484C19.9685 11.7547 20.0618 11.96 20.2485 12.1C20.4445 12.2307 20.6498 12.3333 20.8645 12.408C21.0885 12.4733 21.2331 12.5153 21.2985 12.534L22.2785 12.856C22.7918 13.024 23.2071 13.1967 23.5245 13.374C23.8418 13.5513 24.0845 13.7753 24.2525 14.046C24.4205 14.3073 24.5045 14.6387 24.5045 15.04C24.5045 15.712 24.2618 16.2347 23.7765 16.608C23.3005 16.9813 22.6145 17.168 21.7185 17.168ZM32.5538 13.542H26.8558C26.9025 14.2887 27.1358 14.8907 27.5558 15.348C27.9852 15.796 28.5452 16.02 29.2358 16.02C29.7305 16.02 30.1458 15.9033 30.4818 15.67C30.8178 15.4367 31.0605 15.1007 31.2098 14.662H32.5258C32.3485 15.4367 31.9658 16.048 31.3778 16.496C30.7992 16.944 30.0852 17.168 29.2358 17.168C28.5078 17.168 27.8592 17.0047 27.2898 16.678C26.7298 16.3513 26.2958 15.894 25.9878 15.306C25.6798 14.718 25.5258 14.0553 25.5258 13.318C25.5258 12.506 25.6845 11.806 26.0018 11.218C26.3192 10.6207 26.7485 10.168 27.2898 9.86C27.8405 9.552 28.4425 9.398 29.0958 9.398C30.1318 9.398 30.9625 9.734 31.5878 10.406C32.2132 11.078 32.5352 12.0067 32.5538 13.192V13.542ZM29.0958 10.546C28.5358 10.546 28.0645 10.7187 27.6818 11.064C27.3085 11.4 27.0612 11.876 26.9398 12.492H31.1398C31.0372 11.876 30.8085 11.4 30.4538 11.064C30.0992 10.7187 29.6465 10.546 29.0958 10.546ZM42.6486 9.398C43.4233 9.398 44.0439 9.64533 44.5106 10.14C44.9866 10.6253 45.2246 11.26 45.2246 12.044V17H43.8666V12.1C43.8666 11.6333 43.7313 11.2647 43.4606 10.994C43.1899 10.714 42.8259 10.574 42.3686 10.574C41.7433 10.574 41.2439 10.756 40.8706 11.12C40.4973 11.484 40.3059 11.9413 40.2966 12.492V17H38.9526V12.1C38.9526 11.6333 38.8173 11.2647 38.5466 10.994C38.2759 10.714 37.9119 10.574 37.4546 10.574C36.8293 10.574 36.3299 10.756 35.9566 11.12C35.5833 11.484 35.3919 11.9413 35.3826 12.492V17H34.0386V9.58H35.1166L35.2286 10.672C35.4899 10.2893 35.8399 9.98133 36.2786 9.748C36.7266 9.51467 37.2119 9.398 37.7346 9.398C38.2759 9.398 38.7473 9.524 39.1486 9.776C39.5593 10.028 39.8626 10.378 40.0586 10.826C40.2826 10.3967 40.6279 10.0513 41.0946 9.79C41.5706 9.52867 42.0886 9.398 42.6486 9.398ZM18.9873 24.714H17.0133V28.788C17.0133 29.1427 17.0973 29.4133 17.2653 29.6C17.4426 29.7773 17.6946 29.866 18.0213 29.866H18.8473V31H17.9793C17.2233 31 16.6493 30.818 16.2573 30.454C15.8653 30.0807 15.6693 29.5393 15.6693 28.83V24.714H14.3253V23.58H15.6693V21.046H17.0133V23.58H18.9873V24.714ZM27.2834 29.922V31H26.5834C26.1634 31 25.8414 30.9067 25.6174 30.72C25.3934 30.524 25.2814 30.244 25.2814 29.88V29.81C25.0574 30.23 24.7354 30.5567 24.3154 30.79C23.8954 31.014 23.3774 31.126 22.7614 31.126C21.9214 31.126 21.2447 30.9253 20.7314 30.524C20.2274 30.1227 19.9754 29.586 19.9754 28.914C19.9754 28.3727 20.1247 27.948 20.4234 27.64C20.722 27.3227 21.0907 27.1033 21.5294 26.982C21.9774 26.8513 22.5094 26.7533 23.1254 26.688L23.5594 26.646C24.1474 26.59 24.5627 26.5247 24.8054 26.45C25.0574 26.3753 25.1834 26.2167 25.1834 25.974C25.1834 25.5447 25.02 25.1947 24.6934 24.924C24.376 24.6533 23.9514 24.518 23.4194 24.518C22.8967 24.518 22.458 24.6487 22.1034 24.91C21.7487 25.1713 21.5434 25.5167 21.4874 25.946H20.1434C20.19 25.4513 20.358 25.0127 20.6474 24.63C20.946 24.238 21.338 23.9347 21.8234 23.72C22.3087 23.5053 22.85 23.398 23.4474 23.398C24.0727 23.398 24.614 23.51 25.0714 23.734C25.5287 23.958 25.8787 24.2707 26.1214 24.672C26.3734 25.0733 26.4994 25.5353 26.4994 26.058V29.572C26.4994 29.8053 26.6254 29.922 26.8774 29.922H27.2834ZM22.9854 30.02C23.6294 30.02 24.152 29.8427 24.5534 29.488C24.964 29.124 25.174 28.6573 25.1834 28.088V27.108C25.0994 27.2573 24.964 27.3693 24.7774 27.444C24.5907 27.5187 24.3574 27.5793 24.0774 27.626C23.8067 27.6633 23.5267 27.696 23.2374 27.724C22.6027 27.7987 22.122 27.9107 21.7954 28.06C21.478 28.2 21.3194 28.466 21.3194 28.858C21.3194 29.2127 21.4687 29.4973 21.7674 29.712C22.066 29.9173 22.472 30.02 22.9854 30.02ZM32.6438 23.524V24.84H32.3778C31.6032 24.84 30.9965 25.05 30.5578 25.47C30.1285 25.8807 29.9138 26.4547 29.9138 27.192V31H28.5698V23.58H29.6478L29.8018 25.008C30.2872 24.0187 31.1458 23.524 32.3778 23.524H32.6438ZM34.6012 22.432C34.3399 22.432 34.1159 22.3433 33.9292 22.166C33.7519 21.9793 33.6632 21.7507 33.6632 21.48C33.6632 21.2187 33.7519 20.9993 33.9292 20.822C34.1065 20.6447 34.3305 20.556 34.6012 20.556C34.8719 20.556 35.0959 20.6447 35.2732 20.822C35.4505 20.9993 35.5392 21.2187 35.5392 21.48C35.5392 21.7507 35.4459 21.9793 35.2592 22.166C35.0819 22.3433 34.8625 22.432 34.6012 22.432ZM35.2732 31H33.9292V23.58H35.2732V31ZM40.2218 21.634C39.9324 21.634 39.7084 21.7227 39.5498 21.9C39.4004 22.068 39.3258 22.3107 39.3258 22.628V23.58H41.6358V24.714H39.3258V31H37.9818V24.714H36.6378V23.58H37.9818V22.586C37.9818 21.9047 38.1684 21.3867 38.5418 21.032C38.9151 20.6773 39.4611 20.5 40.1798 20.5H41.8318V21.634H40.2218ZM49.7463 29.922V31H49.0463C48.6263 31 48.3043 30.9067 48.0803 30.72C47.8563 30.524 47.7443 30.244 47.7443 29.88V29.81C47.5203 30.23 47.1983 30.5567 46.7783 30.79C46.3583 31.014 45.8403 31.126 45.2243 31.126C44.3843 31.126 43.7076 30.9253 43.1943 30.524C42.6903 30.1227 42.4383 29.586 42.4383 28.914C42.4383 28.3727 42.5876 27.948 42.8863 27.64C43.1849 27.3227 43.5536 27.1033 43.9923 26.982C44.4403 26.8513 44.9723 26.7533 45.5883 26.688L46.0223 26.646C46.6103 26.59 47.0256 26.5247 47.2683 26.45C47.5203 26.3753 47.6463 26.2167 47.6463 25.974C47.6463 25.5447 47.4829 25.1947 47.1563 24.924C46.8389 24.6533 46.4143 24.518 45.8823 24.518C45.3596 24.518 44.9209 24.6487 44.5663 24.91C44.2116 25.1713 44.0063 25.5167 43.9503 25.946H42.6063C42.6529 25.4513 42.8209 25.0127 43.1103 24.63C43.4089 24.238 43.8009 23.9347 44.2863 23.72C44.7716 23.5053 45.3129 23.398 45.9103 23.398C46.5356 23.398 47.0769 23.51 47.5343 23.734C47.9916 23.958 48.3416 24.2707 48.5843 24.672C48.8363 25.0733 48.9623 25.5353 48.9623 26.058V29.572C48.9623 29.8053 49.0883 29.922 49.3403 29.922H49.7463ZM45.4483 30.02C46.0923 30.02 46.6149 29.8427 47.0163 29.488C47.4269 29.124 47.6369 28.6573 47.6463 28.088V27.108C47.5623 27.2573 47.4269 27.3693 47.2403 27.444C47.0536 27.5187 46.8203 27.5793 46.5403 27.626C46.2696 27.6633 45.9896 27.696 45.7003 27.724C45.0656 27.7987 44.5849 27.9107 44.2583 28.06C43.9409 28.2 43.7823 28.466 43.7823 28.858C43.7823 29.2127 43.9316 29.4973 44.2303 29.712C44.5289 29.9173 44.9349 30.02 45.4483 30.02Z" fill="white"/>
</svg>
